<?xml version="1.0" encoding="utf-8"?>
<!-- Generator: Adobe Illustrator 16.0.3, SVG Export Plug-In . SVG Version: 6.00 Build 0)  -->
<!DOCTYPE svg PUBLIC "-//W3C//DTD SVG 1.1//EN" "http://www.w3.org/Graphics/SVG/1.1/DTD/svg11.dtd">
<svg version="1.1" id="Capa_1" xmlns="http://www.w3.org/2000/svg" xmlns:xlink="http://www.w3.org/1999/xlink" x="0px" y="0px"
	 width="144.271px" height="46.354px" viewBox="0 0 144.271 46.354" enable-background="new 0 0 144.271 46.354"
	 xml:space="preserve">
<g>
	<path fill="#BCDAF8" d="M18.023,2.924c0.152,0.153,0.229,0.344,0.229,0.573c0,0.21-0.077,0.392-0.229,0.544
		c-0.172,0.172-0.392,0.258-0.659,0.258H7.224c-0.42,0-0.745,0.134-0.974,0.401C6.059,4.929,5.963,5.225,5.963,5.588v6.474h10.399
		c0.286,0,0.516,0.076,0.688,0.229c0.152,0.153,0.229,0.344,0.229,0.573c0,0.21-0.077,0.392-0.229,0.544
		c-0.172,0.172-0.401,0.258-0.688,0.258H5.963v7.248c0,0.344,0.096,0.63,0.287,0.859c0.229,0.268,0.554,0.401,0.974,0.401h10.513
		c0.287,0,0.516,0.077,0.688,0.229c0.152,0.153,0.229,0.344,0.229,0.573c0,0.21-0.077,0.392-0.229,0.544
		c-0.172,0.172-0.401,0.257-0.688,0.257H6.909c-0.879,0-1.566-0.286-2.063-0.859c-0.439-0.516-0.659-1.146-0.659-1.891V5.473
		c0-0.764,0.219-1.404,0.659-1.919C5.342,2.981,6.03,2.694,6.909,2.694h10.456C17.631,2.694,17.852,2.771,18.023,2.924z"/>
	<path fill="#BCDAF8" d="M22.521,2.408c0.172-0.134,0.382-0.201,0.63-0.201c0.229,0,0.43,0.067,0.602,0.201
		c0.19,0.153,0.286,0.372,0.286,0.659v20.339c0,0.268-0.096,0.478-0.286,0.63c-0.172,0.153-0.373,0.229-0.602,0.229
		c-0.249,0-0.458-0.076-0.63-0.229c-0.172-0.172-0.258-0.391-0.258-0.659V3.038C22.263,2.771,22.349,2.561,22.521,2.408z"/>
	<path fill="#BCDAF8" d="M39.852,3.783c0.172-0.133,0.382-0.201,0.63-0.201c0.248,0,0.458,0.067,0.63,0.201
		c0.191,0.153,0.287,0.372,0.287,0.659v3.982h2.349c0.497,0,0.745,0.258,0.745,0.773c0,0.535-0.248,0.802-0.745,0.802h-2.349v11.373
		c0,0.344,0.095,0.63,0.287,0.859c0.229,0.286,0.554,0.43,0.974,0.43h1.031c0.267,0,0.487,0.076,0.659,0.229
		c0.153,0.153,0.229,0.344,0.229,0.573c0,0.21-0.076,0.391-0.229,0.544c-0.172,0.172-0.392,0.258-0.659,0.258h-1.347
		c-0.878,0-1.566-0.296-2.063-0.888c-0.458-0.516-0.688-1.146-0.688-1.891V10h-1.547c-0.439,0-0.659-0.268-0.659-0.802
		c0-0.516,0.219-0.773,0.659-0.773h1.547V4.442C39.594,4.155,39.68,3.936,39.852,3.783z"/>
	<path fill="#BCDAF8" d="M48.273,8.367c0.172-0.134,0.382-0.201,0.63-0.201c0.229,0,0.43,0.057,0.602,0.172
		c0.19,0.153,0.286,0.363,0.286,0.63v1.174c0.478-0.668,0.993-1.174,1.547-1.518c0.725-0.458,1.547-0.688,2.463-0.688
		c0.42,0,0.64,0.287,0.659,0.86c0.019,0.592-0.21,0.888-0.688,0.888c-0.936,0-1.767,0.239-2.492,0.716
		c-0.649,0.42-1.146,1.002-1.49,1.748V23.32c0,0.287-0.096,0.516-0.286,0.688c-0.172,0.152-0.373,0.229-0.602,0.229
		c-0.249,0-0.458-0.077-0.63-0.229c-0.172-0.172-0.258-0.401-0.258-0.688V8.968C48.016,8.72,48.102,8.52,48.273,8.367z"/>
	<path fill="#BCDAF8" d="M67.61,8.882c1.107,0.726,1.662,1.843,1.662,3.352v9.081c0,0.325,0.086,0.573,0.258,0.745
		c0.19,0.191,0.458,0.286,0.802,0.286c0.229,0,0.42,0.077,0.573,0.229c0.133,0.153,0.21,0.344,0.229,0.573
		c0,0.21-0.067,0.392-0.201,0.544c-0.153,0.171-0.363,0.257-0.63,0.257c-1.089,0-1.843-0.134-2.263-0.401
		c-0.344-0.248-0.516-0.668-0.516-1.26c-0.573,0.554-1.222,0.993-1.948,1.318c-0.993,0.439-2.12,0.659-3.38,0.659
		c-1.719,0-3.018-0.401-3.896-1.203c-0.859-0.764-1.289-1.843-1.289-3.237c0-1.261,0.296-2.235,0.888-2.922
		c0.878-0.993,2.473-1.633,4.784-1.919c2.043-0.287,3.361-0.592,3.953-0.917c0.573-0.305,0.859-0.869,0.859-1.69
		c0-0.936-0.315-1.642-0.945-2.12c-0.668-0.497-1.671-0.745-3.008-0.745c-1.299,0-2.273,0.287-2.922,0.859
		c-0.573,0.497-0.907,1.223-1.002,2.177c-0.039,0.249-0.163,0.439-0.373,0.573c-0.172,0.134-0.382,0.191-0.63,0.172
		c-0.229-0.019-0.42-0.114-0.573-0.286c-0.172-0.172-0.229-0.401-0.172-0.688c0.229-1.471,0.84-2.578,1.833-3.323
		c0.974-0.706,2.263-1.06,3.867-1.06C65.29,7.937,66.636,8.252,67.61,8.882z M67.495,15.213c-0.268,0.229-0.735,0.449-1.403,0.659
		c-0.821,0.249-1.948,0.468-3.38,0.659s-2.445,0.554-3.037,1.088c-0.573,0.497-0.859,1.232-0.859,2.206
		c0,0.936,0.267,1.633,0.802,2.091c0.554,0.497,1.413,0.745,2.578,0.745c1.318,0,2.444-0.248,3.38-0.745
		c0.84-0.439,1.479-1.05,1.919-1.833V15.213z"/>
	<path fill="#BCDAF8" d="M83.48,9.168c0.84,0.707,1.308,1.643,1.403,2.808c0.019,0.268-0.067,0.497-0.258,0.688
		c-0.172,0.153-0.392,0.248-0.659,0.286c-0.248,0.02-0.468-0.038-0.658-0.172c-0.211-0.152-0.325-0.362-0.344-0.63
		c-0.077-0.84-0.421-1.48-1.031-1.919c-0.649-0.477-1.614-0.716-2.894-0.716c-0.974,0-1.786,0.201-2.435,0.602
		c-0.649,0.439-0.975,0.993-0.975,1.662c0,0.783,0.287,1.404,0.859,1.862c0.611,0.478,1.738,0.927,3.381,1.347
		c2.005,0.458,3.418,1.079,4.239,1.862c0.783,0.726,1.175,1.729,1.175,3.008c0,1.28-0.469,2.311-1.404,3.094
		c-1.012,0.878-2.463,1.318-4.354,1.318s-3.343-0.392-4.354-1.174c-1.013-0.783-1.547-1.919-1.604-3.409
		c-0.019-0.267,0.067-0.487,0.258-0.659c0.153-0.153,0.354-0.229,0.602-0.229c0.248-0.019,0.458,0.038,0.63,0.172
		c0.191,0.134,0.296,0.334,0.315,0.602c0,0.993,0.315,1.747,0.945,2.263c0.669,0.554,1.748,0.831,3.237,0.831
		c1.241,0,2.215-0.277,2.922-0.831c0.668-0.496,1.003-1.165,1.003-2.005c0-0.783-0.287-1.394-0.859-1.833
		c-0.688-0.554-1.968-1.06-3.839-1.519c-1.7-0.439-2.932-0.993-3.695-1.661c-0.841-0.707-1.261-1.652-1.261-2.836
		c0-1.279,0.506-2.282,1.519-3.008c0.955-0.688,2.206-1.032,3.753-1.032C81.026,7.937,82.487,8.348,83.48,9.168z"/>
	<path fill="#BCDAF8" d="M90.727,3.783c0.172-0.133,0.382-0.201,0.63-0.201s0.459,0.067,0.631,0.201
		c0.19,0.153,0.286,0.372,0.286,0.659v3.982h2.349c0.497,0,0.745,0.258,0.745,0.773c0,0.535-0.248,0.802-0.745,0.802h-2.349v11.373
		c0,0.344,0.096,0.63,0.286,0.859c0.229,0.286,0.554,0.43,0.975,0.43h1.031c0.267,0,0.486,0.076,0.658,0.229
		c0.153,0.153,0.229,0.344,0.229,0.573c0,0.21-0.076,0.391-0.229,0.544c-0.172,0.172-0.392,0.258-0.658,0.258h-1.347
		c-0.879,0-1.566-0.296-2.063-0.888c-0.458-0.516-0.688-1.146-0.688-1.891V10h-1.547c-0.439,0-0.659-0.268-0.659-0.802
		c0-0.516,0.22-0.773,0.659-0.773h1.547V4.442C90.469,4.155,90.555,3.936,90.727,3.783z"/>
	<path fill="#BCDAF8" d="M109.633,18.822c0.229-0.076,0.468-0.066,0.717,0.029c0.229,0.077,0.391,0.22,0.486,0.43
		c0.115,0.249,0.115,0.516,0,0.802c-0.554,1.337-1.356,2.358-2.406,3.065c-1.069,0.745-2.33,1.117-3.781,1.117
		c-2.044,0-3.667-0.84-4.87-2.521c-1.088-1.527-1.633-3.399-1.633-5.615c0-2.234,0.545-4.125,1.633-5.672
		c1.203-1.68,2.826-2.521,4.87-2.521c2.043,0,3.676,0.841,4.898,2.521c1.107,1.547,1.662,3.438,1.662,5.672v0.458H99.951
		c0.076,1.624,0.487,2.989,1.232,4.097c0.859,1.317,2.015,1.977,3.466,1.977c1.146,0,2.101-0.334,2.865-1.003
		c0.591-0.496,1.117-1.241,1.575-2.234C109.204,19.138,109.385,18.937,109.633,18.822z M109.319,14.984
		c-0.115-1.356-0.526-2.55-1.232-3.581c-0.879-1.26-2.024-1.891-3.438-1.891s-2.55,0.621-3.409,1.862
		c-0.706,1.012-1.117,2.215-1.231,3.609H109.319z"/>
	<path fill="#BCDAF8" d="M115.792,8.367c0.172-0.134,0.382-0.201,0.63-0.201c0.229,0,0.43,0.057,0.602,0.172
		c0.191,0.153,0.287,0.363,0.287,0.63v1.174c0.477-0.668,0.992-1.174,1.547-1.518c0.726-0.458,1.547-0.688,2.463-0.688
		c0.42,0,0.64,0.287,0.659,0.86c0.019,0.592-0.21,0.888-0.688,0.888c-0.936,0-1.767,0.239-2.492,0.716
		c-0.649,0.42-1.146,1.002-1.489,1.748V23.32c0,0.287-0.096,0.516-0.287,0.688c-0.172,0.152-0.372,0.229-0.602,0.229
		c-0.248,0-0.458-0.077-0.63-0.229c-0.172-0.172-0.258-0.401-0.258-0.688V8.968C115.535,8.72,115.621,8.52,115.792,8.367z"/>
	<path fill="#BCDAF8" d="M136.962,10.515c1.146,1.489,1.719,3.371,1.719,5.643c0,2.254-0.573,4.125-1.719,5.615
		c-1.28,1.7-3.047,2.55-5.3,2.55c-2.272,0-4.049-0.85-5.328-2.55c-1.127-1.49-1.69-3.361-1.69-5.615c0-2.272,0.563-4.154,1.69-5.643
		c1.279-1.681,3.056-2.521,5.328-2.521C133.916,7.994,135.682,8.834,136.962,10.515z M127.681,11.604
		c-0.821,1.203-1.232,2.721-1.232,4.555c0,1.814,0.411,3.323,1.232,4.526c0.954,1.356,2.281,2.034,3.981,2.034
		c1.681,0,2.988-0.678,3.925-2.034c0.859-1.222,1.289-2.731,1.289-4.526c0-1.833-0.43-3.352-1.289-4.555
		c-0.937-1.356-2.244-2.034-3.925-2.034C129.962,9.57,128.635,10.248,127.681,11.604z"/>
	<path d="M56.785,44.043c-0.014,0.216-0.088,0.385-0.223,0.507c-0.108,0.094-0.25,0.142-0.425,0.142
		c-0.163-0.014-0.304-0.074-0.426-0.183c-0.122-0.122-0.183-0.277-0.183-0.466v-0.872c-0.297,0.473-0.73,0.872-1.297,1.196
		c-0.663,0.364-1.399,0.547-2.21,0.547c-1.554,0-2.764-0.601-3.629-1.804c-0.771-1.055-1.156-2.379-1.156-3.974
		c0-1.608,0.385-2.94,1.156-3.994c0.865-1.189,2.075-1.784,3.629-1.784c0.771,0,1.439,0.148,2.007,0.446
		c0.581,0.297,1.082,0.764,1.5,1.398v-5.271c0-0.203,0.061-0.365,0.183-0.487c0.122-0.094,0.27-0.142,0.446-0.142
		c0.162,0,0.304,0.054,0.426,0.162c0.135,0.122,0.203,0.291,0.203,0.507V44.043z M49.345,35.914
		c-0.554,0.852-0.831,1.926-0.831,3.224c0,1.284,0.277,2.352,0.831,3.203c0.635,0.96,1.527,1.439,2.676,1.439
		c1.135,0,2.021-0.479,2.656-1.439c0.568-0.852,0.852-1.919,0.852-3.203c0-1.298-0.284-2.372-0.852-3.224
		c-0.635-0.96-1.521-1.439-2.656-1.439C50.872,34.474,49.98,34.954,49.345,35.914z"/>
	<path d="M67.875,41.022c0.162-0.054,0.331-0.047,0.507,0.021c0.162,0.055,0.277,0.155,0.345,0.304c0.081,0.176,0.081,0.365,0,0.568
		c-0.392,0.946-0.96,1.669-1.703,2.169c-0.757,0.527-1.649,0.791-2.676,0.791c-1.446,0-2.595-0.595-3.447-1.784
		c-0.77-1.081-1.155-2.406-1.155-3.974c0-1.581,0.385-2.92,1.155-4.015c0.852-1.188,2-1.784,3.447-1.784
		c1.446,0,2.602,0.596,3.467,1.784c0.784,1.095,1.176,2.434,1.176,4.015v0.324h-7.968c0.054,1.149,0.345,2.115,0.872,2.899
		c0.608,0.933,1.426,1.398,2.453,1.398c0.811,0,1.486-0.236,2.027-0.709c0.418-0.352,0.791-0.879,1.115-1.582
		C67.57,41.246,67.699,41.103,67.875,41.022z M67.652,38.305c-0.082-0.959-0.372-1.804-0.872-2.534
		c-0.622-0.892-1.433-1.338-2.433-1.338c-1,0-1.805,0.439-2.413,1.318c-0.5,0.716-0.791,1.567-0.872,2.554H67.652z"/>
	<path d="M88.939,29.77c0.108,0.108,0.162,0.244,0.162,0.406c0,0.148-0.054,0.277-0.162,0.385c-0.122,0.122-0.277,0.183-0.466,0.183
		h-7.177c-0.298,0-0.527,0.095-0.689,0.284c-0.136,0.162-0.203,0.371-0.203,0.628v4.582h7.359c0.203,0,0.365,0.054,0.486,0.162
		c0.108,0.108,0.162,0.243,0.162,0.405c0,0.149-0.054,0.277-0.162,0.386c-0.121,0.121-0.283,0.182-0.486,0.182h-7.359v5.13
		c0,0.243,0.067,0.445,0.203,0.608c0.162,0.189,0.392,0.283,0.689,0.283h7.439c0.203,0,0.365,0.055,0.487,0.162
		c0.107,0.108,0.162,0.243,0.162,0.405c0,0.149-0.055,0.277-0.162,0.386c-0.122,0.121-0.284,0.183-0.487,0.183h-7.663
		c-0.622,0-1.108-0.203-1.46-0.608c-0.311-0.365-0.466-0.811-0.466-1.338V31.575c0-0.54,0.155-0.993,0.466-1.358
		c0.352-0.405,0.838-0.608,1.46-0.608h7.4C88.662,29.608,88.817,29.663,88.939,29.77z"/>
	<path d="M92.122,33.643c0.122-0.108,0.271-0.162,0.446-0.162c0.162,0,0.304,0.054,0.426,0.162c0.135,0.121,0.202,0.283,0.202,0.486
		v1.257c0.392-0.662,0.893-1.169,1.5-1.521c0.636-0.365,1.379-0.548,2.23-0.548c1.095,0,1.967,0.332,2.615,0.994
		c0.595,0.595,0.893,1.331,0.893,2.21v7.684c0,0.202-0.068,0.371-0.203,0.507c-0.122,0.107-0.264,0.162-0.426,0.162
		c-0.176,0-0.324-0.055-0.446-0.162c-0.121-0.136-0.183-0.305-0.183-0.507v-7.684c0-0.581-0.189-1.062-0.567-1.439
		c-0.419-0.433-0.979-0.649-1.683-0.649c-0.771,0-1.46,0.203-2.067,0.608c-0.636,0.419-1.189,1.062-1.663,1.926v7.218
		c0,0.216-0.067,0.392-0.202,0.527c-0.122,0.107-0.264,0.168-0.426,0.182c-0.176,0-0.324-0.061-0.446-0.182
		c-0.122-0.122-0.183-0.291-0.183-0.507V34.129C91.939,33.926,92,33.764,92.122,33.643z"/>
	<path d="M113.065,44.043c-0.014,0.216-0.089,0.385-0.224,0.507c-0.108,0.094-0.25,0.142-0.426,0.142
		c-0.162-0.014-0.304-0.074-0.426-0.183c-0.121-0.122-0.183-0.277-0.183-0.466v-0.872c-0.297,0.473-0.729,0.872-1.297,1.196
		c-0.662,0.364-1.399,0.547-2.21,0.547c-1.555,0-2.764-0.601-3.629-1.804c-0.771-1.055-1.155-2.379-1.155-3.974
		c0-1.608,0.385-2.94,1.155-3.994c0.865-1.189,2.074-1.784,3.629-1.784c0.771,0,1.439,0.148,2.007,0.446
		c0.581,0.297,1.081,0.764,1.5,1.398v-5.271c0-0.203,0.062-0.365,0.183-0.487c0.122-0.094,0.271-0.142,0.446-0.142
		c0.162,0,0.304,0.054,0.426,0.162c0.135,0.122,0.203,0.291,0.203,0.507V44.043z M105.625,35.914
		c-0.555,0.852-0.831,1.926-0.831,3.224c0,1.284,0.276,2.352,0.831,3.203c0.635,0.96,1.526,1.439,2.676,1.439
		c1.136,0,2.021-0.479,2.656-1.439c0.567-0.852,0.851-1.919,0.851-3.203c0-1.298-0.283-2.372-0.851-3.224
		c-0.636-0.96-1.521-1.439-2.656-1.439C107.151,34.474,106.259,34.954,105.625,35.914z"/>
	<path d="M118.132,29.588c0.176,0.202,0.264,0.452,0.264,0.75c0,0.271-0.088,0.507-0.264,0.709c-0.189,0.217-0.439,0.325-0.75,0.325
		c-0.324,0-0.574-0.108-0.75-0.325c-0.162-0.188-0.243-0.426-0.243-0.709c0-0.298,0.081-0.548,0.243-0.75
		c0.176-0.217,0.426-0.325,0.75-0.325C117.693,29.263,117.943,29.372,118.132,29.588z M116.937,33.46
		c0.121-0.108,0.27-0.162,0.445-0.162s0.324,0.047,0.446,0.142c0.135,0.108,0.203,0.257,0.203,0.446v10.319
		c0,0.202-0.068,0.364-0.203,0.486c-0.122,0.121-0.271,0.183-0.446,0.183s-0.324-0.055-0.445-0.162
		c-0.122-0.136-0.183-0.305-0.183-0.507V33.886C116.754,33.697,116.815,33.555,116.937,33.46z"/>
	<path d="M121.742,29.426c0.122-0.108,0.271-0.163,0.446-0.163c0.162,0,0.304,0.055,0.426,0.163c0.135,0.121,0.202,0.29,0.202,0.507
		v8.94l5.515-5.454c0.148-0.135,0.311-0.202,0.486-0.202c0.162,0.014,0.305,0.074,0.426,0.183c0.108,0.121,0.162,0.257,0.162,0.405
		c-0.014,0.176-0.102,0.338-0.264,0.486l-3.507,3.467l4.055,6.041c0.121,0.176,0.169,0.352,0.142,0.527s-0.108,0.311-0.243,0.405
		c-0.148,0.108-0.304,0.155-0.466,0.143c-0.189-0.027-0.345-0.122-0.467-0.284l-3.893-5.98l-1.946,1.926v3.67
		c0,0.202-0.067,0.364-0.202,0.486c-0.122,0.121-0.264,0.183-0.426,0.183c-0.176,0-0.324-0.055-0.446-0.162
		c-0.122-0.122-0.183-0.277-0.183-0.467V29.933C121.559,29.716,121.62,29.547,121.742,29.426z"/>
	<path d="M138.893,33.988c0.783,0.514,1.176,1.304,1.176,2.371v6.427c0,0.23,0.061,0.406,0.183,0.527
		c0.135,0.136,0.324,0.203,0.567,0.203c0.162,0,0.297,0.054,0.405,0.162c0.095,0.108,0.148,0.243,0.162,0.405
		c0,0.148-0.047,0.277-0.142,0.385c-0.108,0.122-0.257,0.183-0.446,0.183c-0.771,0-1.305-0.095-1.602-0.283
		c-0.243-0.176-0.364-0.474-0.364-0.893c-0.406,0.393-0.865,0.703-1.379,0.933c-0.703,0.311-1.5,0.467-2.393,0.467
		c-1.216,0-2.136-0.284-2.757-0.852c-0.608-0.541-0.912-1.305-0.912-2.291c0-0.893,0.209-1.581,0.628-2.068
		c0.622-0.702,1.75-1.155,3.386-1.358c1.446-0.202,2.379-0.418,2.798-0.648c0.405-0.216,0.608-0.614,0.608-1.196
		c0-0.662-0.224-1.162-0.669-1.5c-0.474-0.352-1.184-0.527-2.129-0.527c-0.919,0-1.608,0.203-2.068,0.608
		c-0.405,0.352-0.642,0.865-0.709,1.541c-0.027,0.176-0.115,0.311-0.264,0.405c-0.122,0.095-0.271,0.136-0.446,0.122
		c-0.162-0.014-0.297-0.081-0.405-0.203C132,36.785,131.959,36.623,132,36.42c0.162-1.041,0.595-1.825,1.298-2.352
		c0.689-0.5,1.602-0.751,2.737-0.751C137.25,33.318,138.204,33.542,138.893,33.988z M138.812,38.468
		c-0.189,0.162-0.521,0.317-0.993,0.466c-0.582,0.176-1.379,0.331-2.393,0.466c-1.014,0.136-1.73,0.393-2.149,0.771
		c-0.405,0.352-0.608,0.872-0.608,1.562c0,0.662,0.189,1.155,0.568,1.479c0.392,0.352,1,0.527,1.824,0.527
		c0.933,0,1.73-0.176,2.393-0.527c0.595-0.311,1.047-0.743,1.358-1.297V38.468z"/>
</g>
<g>
</g>
<g>
</g>
<g>
</g>
<g>
</g>
<g>
</g>
<g>
</g>
<g>
</g>
<g>
</g>
<g>
</g>
<g>
</g>
<g>
</g>
<g>
</g>
<g>
</g>
<g>
</g>
<g>
</g>
</svg>
